<svg xmlns="http://www.w3.org/2000/svg" xmlns:xlink="http://www.w3.org/1999/xlink" width="240" height="336" class="card" face="AD" preserveAspectRatio="none" viewBox="-120 -168 240 336"><symbol id="DA" preserveAspectRatio="xMinYMid" viewBox="-500 -500 1000 1000"><path fill="none" stroke="red" stroke-linecap="square" stroke-miterlimit="1.5" stroke-width="80" d="M-270 460L-110 460M-200 450L0 -460L200 450M110 460L270 460M-120 130L120 130"/></symbol><symbol id="D" preserveAspectRatio="xMinYMid" viewBox="-600 -600 1200 1200"><path fill="red" d="M-400 0C-350 0 0 -450 0 -500C0 -450 350 0 400 0C350 0 0 450 0 500C0 450 -350 0 -400 0Z"/></symbol><rect width="239" height="335" x="-119.5" y="-167.5" fill="#fff" stroke="#000" rx="12" ry="12"/><use width="70" height="70" x="-35" y="-35" xlink:href="#D"/><use width="32" height="32" x="-114.4" y="-156" xlink:href="#DA"/><use width="26.769" height="26.769" x="-111.784" y="-119" xlink:href="#D"/><g transform="rotate(180)"><use width="32" height="32" x="-114.4" y="-156" xlink:href="#DA"/><use width="26.769" height="26.769" x="-111.784" y="-119" xlink:href="#D"/></g></svg>