<svg xmlns="http://www.w3.org/2000/svg" xmlns:xlink="http://www.w3.org/1999/xlink" width="240" height="336" class="card" face="AH" preserveAspectRatio="none" viewBox="-120 -168 240 336"><symbol id="HA" preserveAspectRatio="xMinYMid" viewBox="-500 -500 1000 1000"><path fill="none" stroke="red" stroke-linecap="square" stroke-miterlimit="1.5" stroke-width="80" d="M-270 460L-110 460M-200 450L0 -460L200 450M110 460L270 460M-120 130L120 130"/></symbol><symbol id="H" preserveAspectRatio="xMinYMid" viewBox="-600 -600 1200 1200"><path fill="red" d="M0 -300C0 -400 100 -500 200 -500C300 -500 400 -400 400 -250C400 0 0 400 0 500C0 400 -400 0 -400 -250C-400 -400 -300 -500 -200 -500C-100 -500 0 -400 -0 -300Z"/></symbol><rect width="239" height="335" x="-119.5" y="-167.5" fill="#fff" stroke="#000" rx="12" ry="12"/><use width="70" height="70" x="-35" y="-35" xlink:href="#H"/><use width="32" height="32" x="-114.4" y="-156" xlink:href="#HA"/><use width="26.769" height="26.769" x="-111.784" y="-119" xlink:href="#H"/><g transform="rotate(180)"><use width="32" height="32" x="-114.4" y="-156" xlink:href="#HA"/><use width="26.769" height="26.769" x="-111.784" y="-119" xlink:href="#H"/></g></svg>