<svg xmlns="http://www.w3.org/2000/svg" xmlns:cc="http://web.resource.org/cc/" xmlns:svg="http://www.w3.org/2000/svg" id="svg2" width="209" height="303" version="1.0" viewBox="0 0 167.184 242.862" xml:space="preserve"><metadata id="metadata448"/><g id="Layer_x0020_1" transform="matrix(1.0000989,0,0,0.9980861,-8.2672285e-3,0.2324071)" style="fill:none;fill-rule:nonzero;stroke:#17067a;stroke-width:1.31759644;stroke-linecap:round;stroke-linejoin:round;stroke-miterlimit:4"><path style="fill:#fff;stroke:#000;stroke-width:.50045443;stroke-linecap:butt;stroke-linejoin:miter" id="path5" d="M 166.93359,235.74316 C 166.93359,239.51758 163.84766,242.6123 160.06348,242.6123 L 7.215332,242.6123 C 3.4404297,242.6123 0.3544922,239.51758 0.3544922,235.74316 L 0.3544922,7.3178711 C 0.3544922,3.5380859 3.4404297,0.4477539 7.215332,0.4477539 L 160.06348,0.4477539 C 163.84766,0.4477539 166.93359,3.5380859 166.93359,7.3178711 L 166.93359,235.74316 L 166.93359,235.74316 z"/><path style="fill:#fff;fill-rule:evenodd;stroke:none" id="path7" d="M 7.6469727,1.8691406 C 4.4335938,1.8691406 1.8457032,4.3852539 1.8457032,7.512207 L 1.8457032,235.43555 C 1.8457032,238.56152 4.4335938,241.07715 7.6469727,241.07715 L 159.7207,241.07715 C 162.93555,241.07715 165.52148,238.56152 165.52148,235.43555 L 165.52148,7.512207 C 165.52148,4.3852539 162.93555,1.8691406 159.7207,1.8691406 L 7.6469727,1.8691406 L 7.6469727,1.8691406 z"/><path style="stroke-width:2.8515892;stroke-linecap:butt;stroke-linejoin:miter;stroke-miterlimit:10" id="path9" d="M 7.6469727,1.8691406 C 4.4335938,1.8691406 1.8457032,4.3852539 1.8457032,7.512207 L 1.8457032,235.43555 C 1.8457032,238.56152 4.4335938,241.07715 7.6469727,241.07715 L 159.7207,241.07715 C 162.93555,241.07715 165.52148,238.56152 165.52148,235.43555 L 165.52148,7.512207 C 165.52148,4.3852539 162.93555,1.8691406 159.7207,1.8691406 L 7.6469727,1.8691406 L 7.6469727,1.8691406 z"/><path style="fill:#fff;fill-rule:evenodd;stroke:none" id="path11" d="M 9.2890625,7.4052734 C 8.4794922,7.4052734 7.8286133,8.0390625 7.8286133,8.8256836 L 7.8286133,234.12207 C 7.8286133,234.9082 8.4794922,235.54199 9.2890625,235.54199 L 157.70898,235.54199 C 158.51855,235.54199 159.1709,234.9082 159.1709,234.12207 L 159.1709,8.8256836 C 159.1709,8.0390625 158.51855,7.4052734 157.70898,7.4052734 L 9.2890625,7.4052734 L 9.2890625,7.4052734 z"/><path style="stroke-width:2.67783141;stroke-linecap:butt;stroke-linejoin:miter;stroke-miterlimit:10" id="path13" d="M 9.2890625,7.4052734 C 8.4794922,7.4052734 7.8286133,8.0390625 7.8286133,8.8256836 L 7.8286133,234.12207 C 7.8286133,234.9082 8.4794922,235.54199 9.2890625,235.54199 L 157.70898,235.54199 C 158.51855,235.54199 159.1709,234.9082 159.1709,234.12207 L 159.1709,8.8256836 C 159.1709,8.0390625 158.51855,7.4052734 157.70898,7.4052734 L 9.2890625,7.4052734 L 9.2890625,7.4052734 z"/><path style="fill:#313390;fill-rule:evenodd;stroke:none" id="path15" d="M 38.657227,37.113769 C 38.26709,37.113769 37.953125,37.418457 37.953125,37.798828 L 37.953125,205.86816 C 37.953125,206.24902 38.26709,206.55371 38.657227,206.55371 L 126.8584,206.55371 C 127.25,206.55371 127.5625,206.24902 127.5625,205.86816 L 127.5625,37.798828 C 127.5625,37.418457 127.25,37.11377 126.8584,37.11377 L 38.657227,37.11377 L 38.657227,37.113769 z"/><path style="stroke-width:1.64236629;stroke-linecap:butt;stroke-linejoin:miter;stroke-miterlimit:10" id="path17" d="M 38.657227,37.113769 C 38.26709,37.113769 37.953125,37.418457 37.953125,37.798828 L 37.953125,205.86816 C 37.953125,206.24902 38.26709,206.55371 38.657227,206.55371 L 126.8584,206.55371 C 127.25,206.55371 127.5625,206.24902 127.5625,205.86816 L 127.5625,37.798828 C 127.5625,37.418457 127.25,37.11377 126.8584,37.11377 L 38.657227,37.11377 L 38.657227,37.113769 z"/><path style="fill:#fff;fill-rule:evenodd;stroke:none" id="path19" d="M 52.620117,43.074219 C 48.000488,43.074219 44.280273,46.692871 44.280273,51.186523 L 44.280273,191.76074 C 44.280273,196.25488 48.000488,199.87305 52.620117,199.87305 L 112.52734,199.87305 C 117.14746,199.87305 120.86719,196.25488 120.86719,191.76074 L 120.86719,51.186523 C 120.86719,46.692871 117.14746,43.074219 112.52734,43.074219 L 52.620117,43.074219 L 52.620117,43.074219 z"/><path style="stroke-width:2.06527543;stroke-linecap:butt;stroke-miterlimit:10" id="path21" d="M 52.620117,43.074219 C 48.000488,43.074219 44.280273,46.692871 44.280273,51.186523 L 44.280273,191.76074 C 44.280273,196.25488 48.000488,199.87305 52.620117,199.87305 L 112.52734,199.87305 C 117.14746,199.87305 120.86719,196.25488 120.86719,191.76074 L 120.86719,51.186523 C 120.86719,46.692871 117.14746,43.074219 112.52734,43.074219 L 52.620117,43.074219 L 52.620117,43.074219 z"/><path style="fill:#313390;fill-rule:evenodd;stroke:none" id="path23" d="M 53.546875,49.536621 C 51.993164,49.536621 50.741699,50.753906 50.741699,52.265625 L 50.741699,190.68066 C 50.741699,192.19336 51.993164,193.41016 53.546875,193.41016 L 111.22852,193.41016 C 112.78418,193.41016 114.03711,192.19336 114.03711,190.68066 L 114.03711,52.265625 C 114.03711,50.753906 112.78418,49.536621 111.22852,49.536621 L 53.546875,49.536621 z"/><path style="stroke-width:1.79848301;stroke-linecap:butt;stroke-miterlimit:10" id="path25" d="M 53.546875,49.536621 C 51.993164,49.536621 50.741699,50.753906 50.741699,52.265625 L 50.741699,190.68066 C 50.741699,192.19336 51.993164,193.41016 53.546875,193.41016 L 111.22852,193.41016 C 112.78418,193.41016 114.03711,192.19336 114.03711,190.68066 L 114.03711,52.265625 C 114.03711,50.753906 112.78418,49.536621 111.22852,49.536621 L 53.546875,49.536621 z"/><path style="fill:#17067a;fill-rule:evenodd;stroke:none" id="path27" d="M 9.4145508,9.0317383 L 16.077149,9.0317383 L 9.4785157,15.43457 L 9.4145509,9.0317383 L 9.4145508,9.0317383 z"/><path style="stroke-width:.86410964;stroke-linecap:butt;stroke-linejoin:miter;stroke-miterlimit:10" id="path29" d="M 9.4145508,9.0317383 L 16.077149,9.0317383 L 9.4785157,15.43457 L 9.4145509,9.0317383 L 9.4145508,9.0317383 z"/><path style="fill:#17067a;fill-rule:evenodd;stroke:none" id="path31" d="M 157.48242,9.1147461 L 150.82031,9.1147461 L 157.41797,15.517578 L 157.48242,9.1147461 L 157.48242,9.1147461 z"/><path style="stroke-width:.86410964;stroke-linecap:butt;stroke-linejoin:miter;stroke-miterlimit:10" id="path33" d="M 157.48242,9.1147461 L 150.82031,9.1147461 L 157.41797,15.517578 L 157.48242,9.1147461 L 157.48242,9.1147461 z"/><path style="fill:#17067a;fill-rule:evenodd;stroke:none" id="path35" d="M 157.60254,234.11816 L 150.93945,234.11816 L 157.53906,227.7168 L 157.60254,234.11816 L 157.60254,234.11816 z"/><path style="stroke-width:.86410964;stroke-linecap:butt;stroke-linejoin:miter;stroke-miterlimit:10" id="path37" d="M 157.60254,234.11816 L 150.93945,234.11816 L 157.53906,227.7168 L 157.60254,234.11816 L 157.60254,234.11816 z"/><path style="fill:#17067a;fill-rule:evenodd;stroke:none" id="path39" d="M 9.4091797,234.08496 L 16.071777,234.08496 L 9.4741211,227.68262 L 9.4091797,234.08496 L 9.4091797,234.08496 z"/><path style="stroke-width:.86410964;stroke-linecap:butt;stroke-linejoin:miter;stroke-miterlimit:10" id="path41" d="M 9.4091797,234.08496 L 16.071777,234.08496 L 9.4741211,227.68262 L 9.4091797,234.08496 L 9.4091797,234.08496 z"/><path style="fill:#313390;fill-rule:evenodd;stroke:none" id="path43" d="M 11.96582,130.63184 L 11.96582,136.76563 L 34.394043,125.2959 L 34.394043,119.01123 L 11.96582,130.63184 L 11.96582,130.63184 z"/><path style="stroke-width:1.31753135;stroke-miterlimit:10" id="path45" d="M 11.96582,130.63184 L 11.96582,136.76563 L 34.394043,125.2959 L 34.394043,119.01123 L 11.96582,130.63184 L 11.96582,130.63184 z"/><path style="fill:#313390;fill-rule:evenodd;stroke:none" id="path47" d="M 12.080078,142.23145 L 12.080078,148.36523 L 34.507813,136.89355 L 34.507813,130.61035 L 12.080078,142.23145 L 12.080078,142.23145 z"/><path style="stroke-width:1.31753135;stroke-miterlimit:10" id="path49" d="M 12.080078,142.23145 L 12.080078,148.36523 L 34.507813,136.89355 L 34.507813,130.61035 L 12.080078,142.23145 L 12.080078,142.23145 z"/><path style="fill:#fff;fill-rule:evenodd;stroke:none" id="path51" d="M 11.854492,136.7959 L 11.854492,130.66211 L 34.281738,142.13281 L 34.281738,148.41699 L 11.854492,136.7959 L 11.854492,136.7959 z"/><path style="stroke-width:1.31753135;stroke-miterlimit:10" id="path53" d="M 11.854492,136.7959 L 11.854492,130.66211 L 34.281738,142.13281 L 34.281738,148.41699 L 11.854492,136.7959 L 11.854492,136.7959 z"/><path style="fill:#313390;fill-rule:evenodd;stroke:none" id="path55" d="M 12.129883,118.87305 L 12.129883,125.00684 L 34.557617,113.53467 L 34.557617,107.25195 L 12.129883,118.87305 L 12.129883,118.87305 z"/><path style="stroke-width:1.31753135;stroke-miterlimit:10" id="path57" d="M 12.129883,118.87305 L 12.129883,125.00684 L 34.557617,113.53467 L 34.557617,107.25195 L 12.129883,118.87305 L 12.129883,118.87305 z"/><path style="fill:#fff;fill-rule:evenodd;stroke:none" id="path59" d="M 12.022949,125.25879 L 12.022949,119.12598 L 34.45166,130.59668 L 34.45166,136.88086 L 12.022949,125.25879 L 12.022949,125.25879 z"/><path style="stroke-width:1.31753135;stroke-miterlimit:10" id="path61" d="M 12.022949,125.25879 L 12.022949,119.12598 L 34.45166,130.59668 L 34.45166,136.88086 L 12.022949,125.25879 L 12.022949,125.25879 z"/><path style="fill:#313390;fill-rule:evenodd;stroke:none" id="path63" d="M 12.016113,107.27344 L 12.016113,113.40723 L 34.443848,101.93701 L 34.443848,95.652344 L 12.016113,107.27344 L 12.016113,107.27344 z"/><path style="stroke-width:1.31753135;stroke-miterlimit:10" id="path65" d="M 12.016113,107.27344 L 12.016113,113.40723 L 34.443848,101.93701 L 34.443848,95.652344 L 12.016113,107.27344 L 12.016113,107.27344 z"/><path style="fill:#fff;fill-rule:evenodd;stroke:none" id="path67" d="M 11.903809,113.43701 L 11.903809,107.30371 L 34.332031,118.77539 L 34.332031,125.05762 L 11.903809,113.43701 L 11.903809,113.43701 z"/><path style="stroke-width:1.31753135;stroke-miterlimit:10" id="path69" d="M 11.903809,113.43701 L 11.903809,107.30371 L 34.332031,118.77539 L 34.332031,125.05762 L 11.903809,113.43701 L 11.903809,113.43701 z"/><path style="fill:#fff;fill-rule:evenodd;stroke:none" id="path71" d="M 12.073242,101.90039 L 12.073242,95.76709 L 34.500977,107.23877 L 34.500977,113.52148 L 12.073242,101.90039 L 12.073242,101.90039 z"/><path style="stroke-width:1.31753135;stroke-miterlimit:10" id="path73" d="M 12.073242,101.90039 L 12.073242,95.76709 L 34.500977,107.23877 L 34.500977,113.52148 L 12.073242,101.90039 L 12.073242,101.90039 z"/><path style="fill:#313390;fill-rule:evenodd;stroke:none" id="path75" d="M 12.11084,153.93652 L 12.11084,160.06934 L 34.538574,148.59961 L 34.538574,142.31543 L 12.11084,153.93652 z"/><path style="stroke-width:1.31753135;stroke-miterlimit:10" id="path77" d="M 12.11084,153.93652 L 12.11084,160.06934 L 34.538574,148.59961 L 34.538574,142.31543 L 12.11084,153.93652 z"/><path style="fill:#fff;fill-rule:evenodd;stroke:none" id="path79" d="M 11.884766,148.5 L 11.884766,142.36719 L 34.3125,153.83789 L 34.3125,160.12305 L 11.884766,148.5 z"/><path style="stroke-width:1.31753135;stroke-miterlimit:10" id="path81" d="M 11.884766,148.5 L 11.884766,142.36719 L 34.3125,153.83789 L 34.3125,160.12305 L 11.884766,148.5 z"/><path style="fill:#313390;fill-rule:evenodd;stroke:none" id="path83" d="M 11.883301,72.185059 L 11.883301,78.318359 L 34.311035,66.847168 L 34.311035,60.563965 L 11.883301,72.185059 z"/><path style="stroke-width:1.31753135;stroke-miterlimit:10" id="path85" d="M 11.883301,72.185059 L 11.883301,78.318359 L 34.311035,66.847168 L 34.311035,60.563965 L 11.883301,72.185059 z"/><path style="fill:#313390;fill-rule:evenodd;stroke:none" id="path87" d="M 11.99707,83.783203 L 11.99707,89.918457 L 34.425781,78.446777 L 34.425781,72.162109 L 11.99707,83.783203 z"/><path style="stroke-width:1.31753135;stroke-miterlimit:10" id="path89" d="M 11.99707,83.783203 L 11.99707,89.918457 L 34.425781,78.446777 L 34.425781,72.162109 L 11.99707,83.783203 z"/><path style="fill:#fff;fill-rule:evenodd;stroke:none" id="path91" d="M 11.771484,78.348633 L 11.771484,72.214844 L 34.200195,83.685058 L 34.200195,89.969726 L 11.771484,78.348633 z"/><path style="stroke-width:1.31753135;stroke-miterlimit:10" id="path93" d="M 11.771484,78.348633 L 11.771484,72.214844 L 34.200195,83.685058 L 34.200195,89.969726 L 11.771484,78.348633 z"/><path style="fill:#313390;fill-rule:evenodd;stroke:none" id="path95" d="M 12.047852,60.424316 L 12.047852,66.55957 L 34.475586,55.087402 L 34.475586,48.803223 L 12.047852,60.424316 z"/><path style="stroke-width:1.31753135;stroke-miterlimit:10" id="path97" d="M 12.047852,60.424316 L 12.047852,66.55957 L 34.475586,55.087402 L 34.475586,48.803223 L 12.047852,60.424316 z"/><path style="fill:#fff;fill-rule:evenodd;stroke:none" id="path99" d="M 11.939941,66.812012 L 11.939941,60.678711 L 34.368652,72.148926 L 34.368652,78.433105 L 11.939941,66.812012 z"/><path style="stroke-width:1.31753135;stroke-miterlimit:10" id="path101" d="M 11.939941,66.812012 L 11.939941,60.678711 L 34.368652,72.148926 L 34.368652,78.433105 L 11.939941,66.812012 z"/><path style="fill:#313390;fill-rule:evenodd;stroke:none" id="path103" d="M 11.933106,48.826172 L 11.933106,54.959473 L 34.360352,43.488281 L 34.360352,37.205078 L 11.933106,48.826172 z"/><path style="stroke-width:1.31753135;stroke-miterlimit:10" id="path105" d="M 11.933106,48.826172 L 11.933106,54.959473 L 34.360352,43.488281 L 34.360352,37.205078 L 11.933106,48.826172 z"/><path style="fill:#fff;fill-rule:evenodd;stroke:none" id="path107" d="M 11.821777,54.989746 L 11.821777,48.856445 L 34.25,60.326172 L 34.25,66.61084 L 11.821777,54.989746 z"/><path style="stroke-width:1.31753135;stroke-miterlimit:10" id="path109" d="M 11.821777,54.989746 L 11.821777,48.856445 L 34.25,60.326172 L 34.25,66.61084 L 11.821777,54.989746 z"/><path style="fill:#fff;fill-rule:evenodd;stroke:none" id="path111" d="M 11.989746,43.453125 L 11.989746,37.320313 L 34.418457,48.790039 L 34.418457,55.074219 L 11.989746,43.453125 z"/><path style="stroke-width:1.31753135;stroke-miterlimit:10" id="path113" d="M 11.989746,43.453125 L 11.989746,37.320313 L 34.418457,48.790039 L 34.418457,55.074219 L 11.989746,43.453125 z"/><path style="fill:#313390;fill-rule:evenodd;stroke:none" id="path115" d="M 12.028809,95.489258 L 12.028809,101.62256 L 34.457031,90.151367 L 34.457031,83.868164 L 12.028809,95.489258 z"/><path style="stroke-width:1.31753135;stroke-miterlimit:10" id="path117" d="M 12.028809,95.489258 L 12.028809,101.62256 L 34.457031,90.151367 L 34.457031,83.868164 L 12.028809,95.489258 z"/><path style="fill:#fff;fill-rule:evenodd;stroke:none" id="path119" d="M 11.802734,90.053223 L 11.802734,83.919434 L 34.230469,95.391113 L 34.230469,101.67432 L 11.802734,90.053223 z"/><path style="stroke-width:1.31753135;stroke-miterlimit:10" id="path121" d="M 11.802734,90.053223 L 11.802734,83.919434 L 34.230469,95.391113 L 34.230469,101.67432 L 11.802734,90.053223 z"/><path style="fill:#313390;fill-rule:evenodd;stroke:none" id="path123" d="M 11.96582,188.91895 L 11.96582,195.05371 L 34.394043,183.58105 L 34.394043,177.2959 L 11.96582,188.91895 L 11.96582,188.91895 z"/><path style="stroke-width:1.31753135;stroke-miterlimit:10" id="path125" d="M 11.96582,188.91895 L 11.96582,195.05371 L 34.394043,183.58105 L 34.394043,177.2959 L 11.96582,188.91895 L 11.96582,188.91895 z"/><path style="fill:#313390;fill-rule:evenodd;stroke:none" id="path127" d="M 12.080078,200.51855 L 12.080078,206.65137 L 34.507813,195.18066 L 34.507813,188.89746 L 12.080078,200.51855 L 12.080078,200.51855 z"/><path style="stroke-width:1.31753135;stroke-miterlimit:10" id="path129" d="M 12.080078,200.51855 L 12.080078,206.65137 L 34.507813,195.18066 L 34.507813,188.89746 L 12.080078,200.51855 L 12.080078,200.51855 z"/><path style="fill:#fff;fill-rule:evenodd;stroke:none" id="path131" d="M 11.854492,195.08398 L 11.854492,188.94824 L 34.281738,200.41992 L 34.281738,206.70508 L 11.854492,195.08398 z"/><path style="stroke-width:1.31753135;stroke-miterlimit:10" id="path133" d="M 11.854492,195.08398 L 11.854492,188.94824 L 34.281738,200.41992 L 34.281738,206.70508 L 11.854492,195.08398 z"/><path style="fill:#313390;fill-rule:evenodd;stroke:none" id="path135" d="M 12.129883,177.15918 L 12.129883,183.29199 L 34.557617,171.82129 L 34.557617,165.53809 L 12.129883,177.15918 L 12.129883,177.15918 z"/><path style="stroke-width:1.31753135;stroke-miterlimit:10" id="path137" d="M 12.129883,177.15918 L 12.129883,183.29199 L 34.557617,171.82129 L 34.557617,165.53809 L 12.129883,177.15918 L 12.129883,177.15918 z"/><path style="fill:#fff;fill-rule:evenodd;stroke:none" id="path139" d="M 12.022949,183.5459 L 12.022949,177.41113 L 34.45166,188.88379 L 34.45166,195.16797 L 12.022949,183.5459 L 12.022949,183.5459 z"/><path style="stroke-width:1.31753135;stroke-miterlimit:10" id="path141" d="M 12.022949,183.5459 L 12.022949,177.41113 L 34.45166,188.88379 L 34.45166,195.16797 L 12.022949,183.5459 L 12.022949,183.5459 z"/><path style="fill:#313390;fill-rule:evenodd;stroke:none" id="path143" d="M 12.016113,165.56152 L 12.016113,171.69434 L 34.443848,160.22168 L 34.443848,153.94043 L 12.016113,165.56152 z"/><path style="stroke-width:1.31753135;stroke-miterlimit:10" id="path145" d="M 12.016113,165.56152 L 12.016113,171.69434 L 34.443848,160.22168 L 34.443848,153.94043 L 12.016113,165.56152 z"/><path style="fill:#fff;fill-rule:evenodd;stroke:none" id="path147" d="M 11.903809,171.72461 L 11.903809,165.59082 L 34.332031,177.06152 L 34.332031,183.34473 L 11.903809,171.72461 L 11.903809,171.72461 z"/><path style="stroke-width:1.31753135;stroke-miterlimit:10" id="path149" d="M 11.903809,171.72461 L 11.903809,165.59082 L 34.332031,177.06152 L 34.332031,183.34473 L 11.903809,171.72461 L 11.903809,171.72461 z"/><path style="fill:#fff;fill-rule:evenodd;stroke:none" id="path151" d="M 12.073242,160.1875 L 12.073242,154.05371 L 34.500977,165.52441 L 34.500977,171.80859 L 12.073242,160.1875 z"/><path style="stroke-width:1.31753135;stroke-miterlimit:10" id="path153" d="M 12.073242,160.1875 L 12.073242,154.05371 L 34.500977,165.52441 L 34.500977,171.80859 L 12.073242,160.1875 z"/><path style="fill:#313390;fill-rule:evenodd;stroke:none" id="path155" d="M 131.93848,113.32178 L 131.93848,107.18555 L 154.36523,118.66357 L 154.36523,124.9502 L 131.93848,113.32178 L 131.93848,113.32178 z"/><path style="stroke-width:1.31753135;stroke-miterlimit:10" id="path157" d="M 131.93848,113.32178 L 131.93848,107.18555 L 154.36523,118.66357 L 154.36523,124.9502 L 131.93848,113.32178 L 131.93848,113.32178 z"/><path style="fill:#313390;fill-rule:evenodd;stroke:none" id="path159" d="M 132.05078,101.71582 L 132.05078,95.579102 L 154.48047,107.05762 L 154.48047,113.34521 L 132.05078,101.71582 z"/><path style="stroke-width:1.31753135;stroke-miterlimit:10" id="path161" d="M 132.05078,101.71582 L 132.05078,95.579102 L 154.48047,107.05762 L 154.48047,113.34521 L 132.05078,101.71582 z"/><path style="fill:#fff;fill-rule:evenodd;stroke:none" id="path163" d="M 131.82617,107.15576 L 131.82617,113.29199 L 154.25293,101.81543 L 154.25293,95.527344 L 131.82617,107.15576 L 131.82617,107.15576 z"/><path style="stroke-width:1.31753135;stroke-miterlimit:10" id="path165" d="M 131.82617,107.15576 L 131.82617,113.29199 L 154.25293,101.81543 L 154.25293,95.527344 L 131.82617,107.15576 L 131.82617,107.15576 z"/><path style="fill:#313390;fill-rule:evenodd;stroke:none" id="path167" d="M 132.09961,125.08887 L 132.09961,118.95117 L 154.53027,130.42871 L 154.53027,136.71777 L 132.09961,125.08887 z"/><path style="stroke-width:1.31753135;stroke-miterlimit:10" id="path169" d="M 132.09961,125.08887 L 132.09961,118.95117 L 154.53027,130.42871 L 154.53027,136.71777 L 132.09961,125.08887 z"/><path style="fill:#fff;fill-rule:evenodd;stroke:none" id="path171" d="M 131.99414,118.69873 L 131.99414,124.83496 L 154.42188,113.3584 L 154.42188,107.0708 L 131.99414,118.69873 L 131.99414,118.69873 z"/><path style="stroke-width:1.31753135;stroke-miterlimit:10" id="path173" d="M 131.99414,118.69873 L 131.99414,124.83496 L 154.42188,113.3584 L 154.42188,107.0708 L 131.99414,118.69873 L 131.99414,118.69873 z"/><path style="fill:#313390;fill-rule:evenodd;stroke:none" id="path175" d="M 131.98828,136.69434 L 131.98828,130.55762 L 154.41602,142.03613 L 154.41602,148.32324 L 131.98828,136.69434 L 131.98828,136.69434 z"/><path style="stroke-width:1.31753135;stroke-miterlimit:10" id="path177" d="M 131.98828,136.69434 L 131.98828,130.55762 L 154.41602,142.03613 L 154.41602,148.32324 L 131.98828,136.69434 L 131.98828,136.69434 z"/><path style="fill:#fff;fill-rule:evenodd;stroke:none" id="path179" d="M 131.875,130.52832 L 131.875,136.66406 L 154.30469,125.18848 L 154.30469,118.8999 L 131.875,130.52832 z"/><path style="stroke-width:1.31753135;stroke-miterlimit:10" id="path181" d="M 131.875,130.52832 L 131.875,136.66406 L 154.30469,125.18848 L 154.30469,118.8999 L 131.875,130.52832 z"/><path style="fill:#fff;fill-rule:evenodd;stroke:none" id="path183" d="M 132.04492,142.07129 L 132.04492,148.20898 L 154.47266,136.73145 L 154.47266,130.44238 L 132.04492,142.07129 z"/><path style="stroke-width:1.31753135;stroke-miterlimit:10" id="path185" d="M 132.04492,142.07129 L 132.04492,148.20898 L 154.47266,136.73145 L 154.47266,130.44238 L 132.04492,142.07129 z"/><path style="fill:#313390;fill-rule:evenodd;stroke:none" id="path187" d="M 132.08398,90.004883 L 132.08398,83.866699 L 154.51172,95.344727 L 154.51172,101.63232 L 132.08398,90.004883 L 132.08398,90.004883 z"/><path style="stroke-width:1.31753135;stroke-miterlimit:10" id="path189" d="M 132.08398,90.004883 L 132.08398,83.866699 L 154.51172,95.344727 L 154.51172,101.63232 L 132.08398,90.004883 L 132.08398,90.004883 z"/><path style="fill:#fff;fill-rule:evenodd;stroke:none" id="path191" d="M 131.85547,95.442871 L 131.85547,101.58105 L 154.28516,90.102539 L 154.28516,83.814941 L 131.85547,95.442871 z"/><path style="stroke-width:1.31753135;stroke-miterlimit:10" id="path193" d="M 131.85547,95.442871 L 131.85547,101.58105 L 154.28516,90.102539 L 154.28516,83.814941 L 131.85547,95.442871 z"/><path style="fill:#313390;fill-rule:evenodd;stroke:none" id="path195" d="M 131.85352,171.80566 L 131.85352,165.66699 L 154.2832,177.14551 L 154.2832,183.43262 L 131.85352,171.80566 z"/><path style="stroke-width:1.31753135;stroke-miterlimit:10" id="path197" d="M 131.85352,171.80566 L 131.85352,165.66699 L 154.2832,177.14551 L 154.2832,183.43262 L 131.85352,171.80566 z"/><path style="fill:#313390;fill-rule:evenodd;stroke:none" id="path199" d="M 131.96875,160.2002 L 131.96875,154.06152 L 154.39648,165.53906 L 154.39648,171.82715 L 131.96875,160.2002 z"/><path style="stroke-width:1.31753135;stroke-miterlimit:10" id="path201" d="M 131.96875,160.2002 L 131.96875,154.06152 L 154.39648,165.53906 L 154.39648,171.82715 L 131.96875,160.2002 z"/><path style="fill:#fff;fill-rule:evenodd;stroke:none" id="path203" d="M 131.74414,165.6377 L 131.74414,171.77539 L 154.17188,160.29785 L 154.17188,154.00977 L 131.74414,165.6377 z"/><path style="stroke-width:1.31753135;stroke-miterlimit:10" id="path205" d="M 131.74414,165.6377 L 131.74414,171.77539 L 154.17188,160.29785 L 154.17188,154.00977 L 131.74414,165.6377 z"/><path style="fill:#313390;fill-rule:evenodd;stroke:none" id="path207" d="M 132.01758,183.57129 L 132.01758,177.43457 L 154.44629,188.91113 L 154.44629,195.2002 L 132.01758,183.57129 L 132.01758,183.57129 z"/><path style="stroke-width:1.31753135;stroke-miterlimit:10" id="path209" d="M 132.01758,183.57129 L 132.01758,177.43457 L 154.44629,188.91113 L 154.44629,195.2002 L 132.01758,183.57129 L 132.01758,183.57129 z"/><path style="fill:#fff;fill-rule:evenodd;stroke:none" id="path211" d="M 131.91211,177.18066 L 131.91211,183.31738 L 154.33984,171.84082 L 154.33984,165.55176 L 131.91211,177.18066 L 131.91211,177.18066 z"/><path style="stroke-width:1.31753135;stroke-miterlimit:10" id="path213" d="M 131.91211,177.18066 L 131.91211,183.31738 L 154.33984,171.84082 L 154.33984,165.55176 L 131.91211,177.18066 L 131.91211,177.18066 z"/><path style="fill:#313390;fill-rule:evenodd;stroke:none" id="path215" d="M 131.9043,195.17871 L 131.9043,189.04199 L 154.33301,200.51855 L 154.33301,206.80566 L 131.9043,195.17871 L 131.9043,195.17871 z"/><path style="stroke-width:1.31753135;stroke-miterlimit:10" id="path217" d="M 131.9043,195.17871 L 131.9043,189.04199 L 154.33301,200.51855 L 154.33301,206.80566 L 131.9043,195.17871 L 131.9043,195.17871 z"/><path style="fill:#fff;fill-rule:evenodd;stroke:none" id="path219" d="M 131.79297,189.01172 L 131.79297,195.14746 L 154.2207,183.66895 L 154.2207,177.38184 L 131.79297,189.01172 z"/><path style="stroke-width:1.31753135;stroke-miterlimit:10" id="path221" d="M 131.79297,189.01172 L 131.79297,195.14746 L 154.2207,183.66895 L 154.2207,177.38184 L 131.79297,189.01172 z"/><path style="fill:#fff;fill-rule:evenodd;stroke:none" id="path223" d="M 131.96191,200.55566 L 131.96191,206.69238 L 154.38965,195.21484 L 154.38965,188.92676 L 131.96191,200.55566 L 131.96191,200.55566 z"/><path style="stroke-width:1.31753135;stroke-miterlimit:10" id="path225" d="M 131.96191,200.55566 L 131.96191,206.69238 L 154.38965,195.21484 L 154.38965,188.92676 L 131.96191,200.55566 L 131.96191,200.55566 z"/><path style="fill:#313390;fill-rule:evenodd;stroke:none" id="path227" d="M 132,148.48633 L 132,142.35059 L 154.42773,153.82715 L 154.42773,160.11426 L 132,148.48633 z"/><path style="stroke-width:1.31753135;stroke-miterlimit:10" id="path229" d="M 132,148.48633 L 132,142.35059 L 154.42773,153.82715 L 154.42773,160.11426 L 132,148.48633 z"/><path style="fill:#fff;fill-rule:evenodd;stroke:none" id="path231" d="M 131.77441,153.92676 L 131.77441,160.06348 L 154.20117,148.58496 L 154.20117,142.29785 L 131.77441,153.92676 L 131.77441,153.92676 z"/><path style="stroke-width:1.31753135;stroke-miterlimit:10" id="path233" d="M 131.77441,153.92676 L 131.77441,160.06348 L 154.20117,148.58496 L 154.20117,142.29785 L 131.77441,153.92676 L 131.77441,153.92676 z"/><path style="fill:#313390;fill-rule:evenodd;stroke:none" id="path235" d="M 131.93848,55.001465 L 131.93848,48.862793 L 154.36523,60.341309 L 154.36523,66.628906 L 131.93848,55.001465 L 131.93848,55.001465 z"/><path style="stroke-width:1.31753135;stroke-miterlimit:10" id="path237" d="M 131.93848,55.001465 L 131.93848,48.862793 L 154.36523,60.341309 L 154.36523,66.628906 L 131.93848,55.001465 L 131.93848,55.001465 z"/><path style="fill:#313390;fill-rule:evenodd;stroke:none" id="path239" d="M 132.05078,43.395019 L 132.05078,37.256836 L 154.48047,48.734863 L 154.48047,55.022949 L 132.05078,43.395019 L 132.05078,43.395019 z"/><path style="stroke-width:1.31753135;stroke-miterlimit:10" id="path241" d="M 132.05078,43.395019 L 132.05078,37.256836 L 154.48047,48.734863 L 154.48047,55.022949 L 132.05078,43.395019 L 132.05078,43.395019 z"/><path style="fill:#fff;fill-rule:evenodd;stroke:none" id="path243" d="M 131.82617,48.833008 L 131.82617,54.971191 L 154.25293,43.493164 L 154.25293,37.205078 L 131.82617,48.833008 L 131.82617,48.833008 z"/><path style="stroke-width:1.31753135;stroke-miterlimit:10" id="path245" d="M 131.82617,48.833008 L 131.82617,54.971191 L 154.25293,43.493164 L 154.25293,37.205078 L 131.82617,48.833008 L 131.82617,48.833008 z"/><path style="fill:#313390;fill-rule:evenodd;stroke:none" id="path247" d="M 132.09961,66.76709 L 132.09961,60.630859 L 154.53027,72.108887 L 154.53027,78.395019 L 132.09961,66.76709 L 132.09961,66.76709 z"/><path style="stroke-width:1.31753135;stroke-miterlimit:10" id="path249" d="M 132.09961,66.76709 L 132.09961,60.630859 L 154.53027,72.108887 L 154.53027,78.395019 L 132.09961,66.76709 L 132.09961,66.76709 z"/><path style="fill:#fff;fill-rule:evenodd;stroke:none" id="path251" d="M 131.99414,60.37793 L 131.99414,66.514649 L 154.42188,55.036133 L 154.42188,48.748535 L 131.99414,60.37793 L 131.99414,60.37793 z"/><path style="stroke-width:1.31753135;stroke-miterlimit:10" id="path253" d="M 131.99414,60.37793 L 131.99414,66.514649 L 154.42188,55.036133 L 154.42188,48.748535 L 131.99414,60.37793 L 131.99414,60.37793 z"/><path style="fill:#313390;fill-rule:evenodd;stroke:none" id="path255" d="M 131.98828,78.373535 L 131.98828,72.236816 L 154.41602,83.713379 L 154.41602,90.001465 L 131.98828,78.373535 L 131.98828,78.373535 z"/><path style="stroke-width:1.31753135;stroke-miterlimit:10" id="path257" d="M 131.98828,78.373535 L 131.98828,72.236816 L 154.41602,83.713379 L 154.41602,90.001465 L 131.98828,78.373535 L 131.98828,78.373535 z"/><path style="fill:#fff;fill-rule:evenodd;stroke:none" id="path259" d="M 131.875,72.206543 L 131.875,78.34375 L 154.30469,66.865234 L 154.30469,60.577149 L 131.875,72.206543 z"/><path style="stroke-width:1.31753135;stroke-miterlimit:10" id="path261" d="M 131.875,72.206543 L 131.875,78.34375 L 154.30469,66.865234 L 154.30469,60.577149 L 131.875,72.206543 z"/><path style="fill:#fff;fill-rule:evenodd;stroke:none" id="path263" d="M 132.04492,83.75 L 132.04492,89.887207 L 154.47266,78.410156 L 154.47266,72.122558 L 132.04492,83.75 z"/><path style="stroke-width:1.31753135;stroke-miterlimit:10" id="path265" d="M 132.04492,83.75 L 132.04492,89.887207 L 154.47266,78.410156 L 154.47266,72.122558 L 132.04492,83.75 z"/><path style="fill:#313390;fill-rule:evenodd;stroke:none" id="path267" d="M 68.547363,11.509766 L 62.257813,11.509766 L 74.022461,33.325195 L 80.468262,33.325195 L 68.547363,11.509766 z"/><path style="stroke-width:1.31753135;stroke-miterlimit:10" id="path269" d="M 68.547363,11.509766 L 62.257813,11.509766 L 74.022461,33.325195 L 80.468262,33.325195 L 68.547363,11.509766 z"/><path style="fill:#313390;fill-rule:evenodd;stroke:none" id="path271" d="M 56.651856,11.621582 L 50.361816,11.621582 L 62.125977,33.437012 L 68.570801,33.437012 L 56.651856,11.621582 z"/><path style="stroke-width:1.31753135;stroke-miterlimit:10" id="path273" d="M 56.651856,11.621582 L 50.361816,11.621582 L 62.125977,33.437012 L 68.570801,33.437012 L 56.651856,11.621582 z"/><path style="fill:#fff;fill-rule:evenodd;stroke:none" id="path275" d="M 62.227051,11.401856 L 68.51709,11.401856 L 56.75293,33.217285 L 50.308594,33.217285 L 62.227051,11.401856 z"/><path style="stroke-width:1.31753135;stroke-miterlimit:10" id="path277" d="M 62.227051,11.401856 L 68.51709,11.401856 L 56.75293,33.217285 L 50.308594,33.217285 L 62.227051,11.401856 z"/><path style="fill:#313390;fill-rule:evenodd;stroke:none" id="path279" d="M 80.608887,11.669434 L 74.317871,11.669434 L 86.082031,33.484863 L 92.527344,33.484863 L 80.608887,11.669434 L 80.608887,11.669434 z"/><path style="stroke-width:1.31753135;stroke-miterlimit:10" id="path281" d="M 80.608887,11.669434 L 74.317871,11.669434 L 86.082031,33.484863 L 92.527344,33.484863 L 80.608887,11.669434 L 80.608887,11.669434 z"/><path style="fill:#fff;fill-rule:evenodd;stroke:none" id="path283" d="M 74.058594,11.566406 L 80.349609,11.566406 L 68.585449,33.381836 L 62.140137,33.381836 L 74.058594,11.566406 L 74.058594,11.566406 z"/><path style="stroke-width:1.31753135;stroke-miterlimit:10" id="path285" d="M 74.058594,11.566406 L 80.349609,11.566406 L 68.585449,33.381836 L 62.140137,33.381836 L 74.058594,11.566406 L 74.058594,11.566406 z"/><path style="fill:#313390;fill-rule:evenodd;stroke:none" id="path287" d="M 116.45996,11.659668 L 110.16992,11.659668 L 121.93457,33.475098 L 128.37891,33.475098 L 116.45996,11.659668 z"/><path style="stroke-width:1.31753135;stroke-miterlimit:10" id="path289" d="M 116.45996,11.659668 L 110.16992,11.659668 L 121.93457,33.475098 L 128.37891,33.475098 L 116.45996,11.659668 z"/><path style="fill:#313390;fill-rule:evenodd;stroke:none" id="path291" d="M 92.503906,11.558106 L 86.213867,11.558106 L 97.978516,33.375488 L 104.4248,33.375488 L 92.503906,11.558106 z"/><path style="stroke-width:1.31753135;stroke-miterlimit:10" id="path293" d="M 92.503906,11.558106 L 86.213867,11.558106 L 97.978516,33.375488 L 104.4248,33.375488 L 92.503906,11.558106 z"/><path style="fill:#fff;fill-rule:evenodd;stroke:none" id="path295" d="M 86.183594,11.449707 L 92.472656,11.449707 L 80.709961,33.265625 L 74.265137,33.265625 L 86.183594,11.449707 L 86.183594,11.449707 z"/><path style="stroke-width:1.31753135;stroke-miterlimit:10" id="path297" d="M 86.183594,11.449707 L 92.472656,11.449707 L 80.709961,33.265625 L 74.265137,33.265625 L 86.183594,11.449707 L 86.183594,11.449707 z"/><path style="fill:#313390;fill-rule:evenodd;stroke:none" id="path299" d="M 104.56445,11.770996 L 98.274414,11.770996 L 110.03906,33.586426 L 116.48242,33.586426 L 104.56445,11.770996 L 104.56445,11.770996 z"/><path style="stroke-width:1.31753135;stroke-miterlimit:10" id="path301" d="M 104.56445,11.770996 L 98.274414,11.770996 L 110.03906,33.586426 L 116.48242,33.586426 L 104.56445,11.770996 L 104.56445,11.770996 z"/><path style="fill:#fff;fill-rule:evenodd;stroke:none" id="path303" d="M 98.015625,11.614746 L 104.30664,11.614746 L 92.541016,33.430176 L 86.097656,33.430176 L 98.015625,11.614746 z"/><path style="stroke-width:1.31753135;stroke-miterlimit:10" id="path305" d="M 98.015625,11.614746 L 104.30664,11.614746 L 92.541016,33.430176 L 86.097656,33.430176 L 98.015625,11.614746 z"/><path style="fill:#fff;fill-rule:evenodd;stroke:none" id="path307" d="M 110.13867,11.549805 L 116.42969,11.549805 L 104.66602,33.367188 L 98.220703,33.367188 L 110.13867,11.549805 L 110.13867,11.549805 z"/><path style="stroke-width:1.31753135;stroke-miterlimit:10" id="path309" d="M 110.13867,11.549805 L 116.42969,11.549805 L 104.66602,33.367188 L 98.220703,33.367188 L 110.13867,11.549805 L 110.13867,11.549805 z"/><path style="fill:#313390;fill-rule:evenodd;stroke:none" id="path311" d="M 128.48633,11.717773 L 122.19629,11.717773 L 133.96094,33.533203 L 140.4043,33.533203 L 128.48633,11.717773 L 128.48633,11.717773 z"/><path style="stroke-width:1.31753135;stroke-miterlimit:10" id="path313" d="M 128.48633,11.717773 L 122.19629,11.717773 L 133.96094,33.533203 L 140.4043,33.533203 L 128.48633,11.717773 L 128.48633,11.717773 z"/><path style="fill:#fff;fill-rule:evenodd;stroke:none" id="path315" d="M 121.97266,11.714356 L 128.26172,11.714356 L 116.49805,33.530274 L 110.05273,33.530274 L 121.97266,11.714356 L 121.97266,11.714356 z"/><path style="stroke-width:1.31753135;stroke-miterlimit:10" id="path317" d="M 121.97266,11.714356 L 128.26172,11.714356 L 116.49805,33.530274 L 110.05273,33.530274 L 121.97266,11.714356 L 121.97266,11.714356 z"/><path style="fill:#313390;fill-rule:evenodd;stroke:none" id="path319" d="M 44.647949,11.651367 L 38.35791,11.651367 L 50.122558,33.466797 L 56.565918,33.466797 L 44.647949,11.651367 z"/><path style="stroke-width:1.31753135;stroke-miterlimit:10" id="path321" d="M 44.647949,11.651367 L 38.35791,11.651367 L 50.122558,33.466797 L 56.565918,33.466797 L 44.647949,11.651367 z"/><path style="fill:#313390;fill-rule:evenodd;stroke:none" id="path323" d="M 32.868164,11.43457 L 26.578125,11.43457 L 38.342773,33.250488 L 44.787109,33.250488 L 32.868164,11.43457 L 32.868164,11.43457 z"/><path style="stroke-width:1.31753135;stroke-miterlimit:10" id="path325" d="M 32.868164,11.43457 L 26.578125,11.43457 L 38.342773,33.250488 L 44.787109,33.250488 L 32.868164,11.43457 L 32.868164,11.43457 z"/><path style="fill:#fff;fill-rule:evenodd;stroke:none" id="path327" d="M 50.223144,11.431152 L 56.513184,11.431152 L 44.748535,33.24707 L 38.303711,33.24707 L 50.223145,11.431152 L 50.223144,11.431152 z"/><path style="stroke-width:1.31753135;stroke-miterlimit:10" id="path329" d="M 50.223144,11.431152 L 56.513184,11.431152 L 44.748535,33.24707 L 38.303711,33.24707 L 50.223145,11.431152 L 50.223144,11.431152 z"/><path style="fill:#313390;fill-rule:evenodd;stroke:none" id="path331" d="M 20.957031,11.43457 L 14.666992,11.43457 L 26.431152,33.250488 L 32.875488,33.250488 L 20.957031,11.43457 z"/><path style="stroke-width:1.31753135;stroke-miterlimit:10" id="path333" d="M 20.957031,11.43457 L 14.666992,11.43457 L 26.431152,33.250488 L 32.875488,33.250488 L 20.957031,11.43457 z"/><path style="fill:#fff;fill-rule:evenodd;stroke:none" id="path335" d="M 38.34082,11.43457 L 44.630859,11.43457 L 32.866211,33.250488 L 26.422852,33.250488 L 38.34082,11.43457 L 38.34082,11.43457 z"/><path style="stroke-width:1.31753135;stroke-miterlimit:10" id="path337" d="M 38.34082,11.43457 L 44.630859,11.43457 L 32.866211,33.250488 L 26.422852,33.250488 L 38.34082,11.43457 L 38.34082,11.43457 z"/><path style="fill:#fff;fill-rule:evenodd;stroke:none" id="path339" d="M 26.584961,11.43457 L 32.875488,11.43457 L 21.112305,33.250488 L 14.666992,33.250488 L 26.584961,11.43457 L 26.584961,11.43457 z"/><path style="stroke-width:1.31753135;stroke-miterlimit:10" id="path341" d="M 26.584961,11.43457 L 32.875488,11.43457 L 21.112305,33.250488 L 14.666992,33.250488 L 26.584961,11.43457 L 26.584961,11.43457 z"/><path style="fill:#313390;fill-rule:evenodd;stroke:none" id="path343" d="M 140.38281,11.606445 L 134.0918,11.606445 L 145.85742,33.42334 L 152.30078,33.42334 L 140.38281,11.606445 L 140.38281,11.606445 z"/><path style="stroke-width:1.31753135;stroke-miterlimit:10" id="path345" d="M 140.38281,11.606445 L 134.0918,11.606445 L 145.85742,33.42334 L 152.30078,33.42334 L 140.38281,11.606445 L 140.38281,11.606445 z"/><path style="fill:#fff;fill-rule:evenodd;stroke:none" id="path347" d="M 134.0625,11.498047 L 140.35156,11.498047 L 128.58789,33.313477 L 122.14063,33.313477 L 134.0625,11.498047 z"/><path style="stroke-width:1.31753135;stroke-miterlimit:10" id="path349" d="M 134.0625,11.498047 L 140.35156,11.498047 L 128.58789,33.313477 L 122.14063,33.313477 L 134.0625,11.498047 z"/><path style="fill:#fff;fill-rule:evenodd;stroke:none" id="path351" d="M 145.89258,11.663086 L 152.18262,11.663086 L 140.41992,33.478516 L 133.97461,33.478516 L 145.89258,11.663086 L 145.89258,11.663086 z"/><path style="stroke-width:1.31753135;stroke-miterlimit:10" id="path353" d="M 145.89258,11.663086 L 152.18262,11.663086 L 140.41992,33.478516 L 133.97461,33.478516 L 145.89258,11.663086 L 145.89258,11.663086 z"/><path style="fill:#313390;fill-rule:evenodd;stroke:none" id="path355" d="M 68.88916,209.93262 L 62.598633,209.93262 L 74.362305,231.74805 L 80.807617,231.74805 L 68.88916,209.93262 L 68.88916,209.93262 z"/><path style="stroke-width:1.31753135;stroke-miterlimit:10" id="path357" d="M 68.88916,209.93262 L 62.598633,209.93262 L 74.362305,231.74805 L 80.807617,231.74805 L 68.88916,209.93262 L 68.88916,209.93262 z"/><path style="fill:#313390;fill-rule:evenodd;stroke:none" id="path359" d="M 56.993652,210.04395 L 50.702148,210.04395 L 62.466797,231.86035 L 68.912109,231.86035 L 56.993652,210.04395 L 56.993652,210.04395 z"/><path style="stroke-width:1.31753135;stroke-miterlimit:10" id="path361" d="M 56.993652,210.04395 L 50.702148,210.04395 L 62.466797,231.86035 L 68.912109,231.86035 L 56.993652,210.04395 L 56.993652,210.04395 z"/><path style="fill:#fff;fill-rule:evenodd;stroke:none" id="path363" d="M 62.566894,209.8252 L 68.858887,209.8252 L 57.094727,231.63965 L 50.648437,231.63965 L 62.566894,209.8252 L 62.566894,209.8252 z"/><path style="stroke-width:1.31753135;stroke-miterlimit:10" id="path365" d="M 62.566894,209.8252 L 68.858887,209.8252 L 57.094727,231.63965 L 50.648437,231.63965 L 62.566894,209.8252 L 62.566894,209.8252 z"/><path style="fill:#313390;fill-rule:evenodd;stroke:none" id="path367" d="M 80.94873,210.09277 L 74.65918,210.09277 L 86.422852,231.90723 L 92.867188,231.90723 L 80.94873,210.09277 z"/><path style="stroke-width:1.31753135;stroke-miterlimit:10" id="path369" d="M 80.94873,210.09277 L 74.65918,210.09277 L 86.422852,231.90723 L 92.867188,231.90723 L 80.94873,210.09277 z"/><path style="fill:#fff;fill-rule:evenodd;stroke:none" id="path371" d="M 74.399902,209.98926 L 80.689941,209.98926 L 68.925781,231.80566 L 62.480957,231.80566 L 74.399902,209.98926 z"/><path style="stroke-width:1.31753135;stroke-miterlimit:10" id="path373" d="M 74.399902,209.98926 L 80.689941,209.98926 L 68.925781,231.80566 L 62.480957,231.80566 L 74.399902,209.98926 z"/><path style="fill:#313390;fill-rule:evenodd;stroke:none" id="path375" d="M 116.80078,210.08203 L 110.50977,210.08203 L 122.27539,231.89746 L 128.7207,231.89746 L 116.80078,210.08203 z"/><path style="stroke-width:1.31753135;stroke-miterlimit:10" id="path377" d="M 116.80078,210.08203 L 110.50977,210.08203 L 122.27539,231.89746 L 128.7207,231.89746 L 116.80078,210.08203 z"/><path style="fill:#313390;fill-rule:evenodd;stroke:none" id="path379" d="M 92.845703,209.98047 L 86.554688,209.98047 L 98.318359,231.79688 L 104.76465,231.79688 L 92.845703,209.98047 L 92.845703,209.98047 z"/><path style="stroke-width:1.31753135;stroke-miterlimit:10" id="path381" d="M 92.845703,209.98047 L 86.554688,209.98047 L 98.318359,231.79688 L 104.76465,231.79688 L 92.845703,209.98047 L 92.845703,209.98047 z"/><path style="fill:#fff;fill-rule:evenodd;stroke:none" id="path383" d="M 86.523438,209.87305 L 92.81543,209.87305 L 81.050781,231.68848 L 74.605957,231.68848 L 86.523438,209.87305 z"/><path style="stroke-width:1.31753135;stroke-miterlimit:10" id="path385" d="M 86.523438,209.87305 L 92.81543,209.87305 L 81.050781,231.68848 L 74.605957,231.68848 L 86.523438,209.87305 z"/><path style="fill:#313390;fill-rule:evenodd;stroke:none" id="path387" d="M 104.90625,210.19434 L 98.613281,210.19434 L 110.37891,232.00977 L 116.82422,232.00977 L 104.90625,210.19434 z"/><path style="stroke-width:1.31753135;stroke-miterlimit:10" id="path389" d="M 104.90625,210.19434 L 98.613281,210.19434 L 110.37891,232.00977 L 116.82422,232.00977 L 104.90625,210.19434 z"/><path style="fill:#fff;fill-rule:evenodd;stroke:none" id="path391" d="M 98.355469,210.03809 L 104.64648,210.03809 L 92.880859,231.85254 L 86.4375,231.85254 L 98.355469,210.03809 z"/><path style="stroke-width:1.31753135;stroke-miterlimit:10" id="path393" d="M 98.355469,210.03809 L 104.64648,210.03809 L 92.880859,231.85254 L 86.4375,231.85254 L 98.355469,210.03809 z"/><path style="fill:#fff;fill-rule:evenodd;stroke:none" id="path395" d="M 110.47949,209.97168 L 116.76953,209.97168 L 105.00781,231.79004 L 98.561523,231.79004 L 110.47949,209.97168 z"/><path style="stroke-width:1.31753135;stroke-miterlimit:10" id="path397" d="M 110.47949,209.97168 L 116.76953,209.97168 L 105.00781,231.79004 L 98.561523,231.79004 L 110.47949,209.97168 z"/><path style="fill:#313390;fill-rule:evenodd;stroke:none" id="path399" d="M 128.65234,210.20801 L 122.36133,210.20801 L 134.12695,232.02441 L 140.57031,232.02441 L 128.65234,210.20801 L 128.65234,210.20801 z"/><path style="stroke-width:1.31753135;stroke-miterlimit:10" id="path401" d="M 128.65234,210.20801 L 122.36133,210.20801 L 134.12695,232.02441 L 140.57031,232.02441 L 128.65234,210.20801 L 128.65234,210.20801 z"/><path style="fill:#fff;fill-rule:evenodd;stroke:none" id="path403" d="M 122.3125,210.1377 L 128.60156,210.1377 L 116.83789,231.95313 L 110.39258,231.95313 L 122.3125,210.1377 z"/><path style="stroke-width:1.31753135;stroke-miterlimit:10" id="path405" d="M 122.3125,210.1377 L 128.60156,210.1377 L 116.83789,231.95313 L 110.39258,231.95313 L 122.3125,210.1377 z"/><path style="fill:#313390;fill-rule:evenodd;stroke:none" id="path407" d="M 44.988281,210.07422 L 38.69873,210.07422 L 50.462402,231.88965 L 56.906738,231.88965 L 44.988281,210.07422 z"/><path style="stroke-width:1.31753135;stroke-miterlimit:10" id="path409" d="M 44.988281,210.07422 L 38.69873,210.07422 L 50.462402,231.88965 L 56.906738,231.88965 L 44.988281,210.07422 z"/><path style="fill:#313390;fill-rule:evenodd;stroke:none" id="path411" d="M 32.999023,210.11621 L 26.708008,210.11621 L 38.472656,231.93262 L 44.916992,231.93262 L 32.999023,210.11621 L 32.999023,210.11621 z"/><path style="stroke-width:1.31753135;stroke-miterlimit:10" id="path413" d="M 32.999023,210.11621 L 26.708008,210.11621 L 38.472656,231.93262 L 44.916992,231.93262 L 32.999023,210.11621 L 32.999023,210.11621 z"/><path style="fill:#fff;fill-rule:evenodd;stroke:none" id="path415" d="M 50.563965,209.85449 L 56.853027,209.85449 L 45.089844,231.66992 L 38.645508,231.66992 L 50.563965,209.85449 L 50.563965,209.85449 z"/><path style="stroke-width:1.31753135;stroke-miterlimit:10" id="path417" d="M 50.563965,209.85449 L 56.853027,209.85449 L 45.089844,231.66992 L 38.645508,231.66992 L 50.563965,209.85449 L 50.563965,209.85449 z"/><path style="fill:#313390;fill-rule:evenodd;stroke:none" id="path419" d="M 140.54785,210.09766 L 134.25781,210.09766 L 146.02051,231.91504 L 152.4668,231.91504 L 140.54785,210.09766 z"/><path style="stroke-width:1.31753135;stroke-miterlimit:10" id="path421" d="M 140.54785,210.09766 L 134.25781,210.09766 L 146.02051,231.91504 L 152.4668,231.91504 L 140.54785,210.09766 z"/><path style="fill:#fff;fill-rule:evenodd;stroke:none" id="path423" d="M 134.22754,209.98926 L 140.51758,209.98926 L 128.75391,231.80566 L 122.30664,231.80566 L 134.22754,209.98926 L 134.22754,209.98926 z"/><path style="stroke-width:1.31753135;stroke-miterlimit:10" id="path425" d="M 134.22754,209.98926 L 140.51758,209.98926 L 128.75391,231.80566 L 122.30664,231.80566 L 134.22754,209.98926 L 134.22754,209.98926 z"/><path style="fill:#fff;fill-rule:evenodd;stroke:none" id="path427" d="M 146.05859,210.15332 L 152.34766,210.15332 L 140.58398,231.96973 L 134.13965,231.96973 L 146.05859,210.15332 z"/><path style="stroke-width:1.31753135;stroke-miterlimit:10" id="path429" d="M 146.05859,210.15332 L 152.34766,210.15332 L 140.58398,231.96973 L 134.13965,231.96973 L 146.05859,210.15332 z"/><path style="fill:#fff;fill-rule:evenodd;stroke:none" id="path431" d="M 38.572754,209.89551 L 44.86377,209.89551 L 33.099121,231.71387 L 26.655273,231.71387 L 38.572754,209.89551 L 38.572754,209.89551 z"/><path style="stroke-width:1.31753135;stroke-miterlimit:10" id="path433" d="M 38.572754,209.89551 L 44.86377,209.89551 L 33.099121,231.71387 L 26.655273,231.71387 L 38.572754,209.89551 L 38.572754,209.89551 z"/><path style="fill:#313390;fill-rule:evenodd;stroke:none" id="path435" d="M 20.994629,210.14746 L 14.703613,210.14746 L 26.468262,231.96289 L 32.913086,231.96289 L 20.994629,210.14746 z"/><path style="stroke-width:1.31753135;stroke-miterlimit:10" id="path437" d="M 20.994629,210.14746 L 14.703613,210.14746 L 26.468262,231.96289 L 32.913086,231.96289 L 20.994629,210.14746 z"/><path style="fill:#fff;fill-rule:evenodd;stroke:none" id="path439" d="M 26.568848,209.92578 L 32.859863,209.92578 L 21.095703,231.74316 L 14.649414,231.74316 L 26.568848,209.92578 L 26.568848,209.92578 z"/><path style="stroke-width:1.31753135;stroke-miterlimit:10" id="path441" d="M 26.568848,209.92578 L 32.859863,209.92578 L 21.095703,231.74316 L 14.649414,231.74316 L 26.568848,209.92578 L 26.568848,209.92578 z"/><path style="stroke:#000;stroke-width:.50045443;stroke-linecap:butt;stroke-linejoin:miter" id="path443" d="M 166.83008,235.54492 C 166.83008,239.31934 163.74414,242.41504 159.95898,242.41504 L 7.1108398,242.41504 C 3.3359375,242.41504 0.25,239.31934 0.25,235.54492 L 0.25,7.1196289 C 0.25,3.340332 3.3359375,0.25 7.1108398,0.25 L 159.95898,0.25 C 163.74414,0.25 166.83008,3.340332 166.83008,7.1196289 L 166.83008,235.54492 L 166.83008,235.54492 z"/></g></svg>