<svg xmlns="http://www.w3.org/2000/svg" xmlns:xlink="http://www.w3.org/1999/xlink" width="240" height="336" class="card" face="TS" preserveAspectRatio="none" viewBox="-120 -168 240 336"><symbol id="S" preserveAspectRatio="xMinYMid" viewBox="-600 -600 1200 1200"><path fill="#000" d="M0 -500C100 -250 355 -100 355 185A150 150 0 0 1 55 185A10 10 0 0 0 35 185C35 385 85 400 130 500L-130 500C-85 400 -35 385 -35 185A10 10 0 0 0 -55 185A150 150 0 0 1 -355 185C-355 -100 -100 -250 0 -500Z"/></symbol><symbol id="ST" preserveAspectRatio="xMinYMid" viewBox="-500 -500 1000 1000"><path fill="none" stroke="#000" stroke-linecap="square" stroke-miterlimit="1.5" stroke-width="80" d="M-260 430L-260 -430M-50 0L-50 -310A150 150 0 0 1 250 -310L250 310A150 150 0 0 1 -50 310Z"/></symbol><rect width="239" height="335" x="-119.5" y="-167.5" fill="#fff" stroke="#000" rx="12" ry="12"/><use width="32" height="32" x="-114.4" y="-156" xlink:href="#ST"/><use width="26.769" height="26.769" x="-111.784" y="-119" xlink:href="#S"/><use width="70" height="70" x="-87.501" y="-135.501" xlink:href="#S"/><use width="70" height="70" x="17.501" y="-135.501" xlink:href="#S"/><use width="70" height="70" x="-87.501" y="-68.5" xlink:href="#S"/><use width="70" height="70" x="17.501" y="-68.5" xlink:href="#S"/><use width="70" height="70" x="-35" y="-102" xlink:href="#S"/><g transform="rotate(180)"><use width="32" height="32" x="-114.4" y="-156" xlink:href="#ST"/><use width="26.769" height="26.769" x="-111.784" y="-119" xlink:href="#S"/><use width="70" height="70" x="-87.501" y="-135.501" xlink:href="#S"/><use width="70" height="70" x="17.501" y="-135.501" xlink:href="#S"/><use width="70" height="70" x="-87.501" y="-68.5" xlink:href="#S"/><use width="70" height="70" x="17.501" y="-68.5" xlink:href="#S"/><use width="70" height="70" x="-35" y="-102" xlink:href="#S"/></g></svg>