<svg xmlns="http://www.w3.org/2000/svg" xmlns:xlink="http://www.w3.org/1999/xlink" width="240" height="336" class="card" face="AS" preserveAspectRatio="none" viewBox="-120 -168 240 336"><symbol id="SA" preserveAspectRatio="xMinYMid" viewBox="-500 -500 1000 1000"><path fill="none" stroke="#000" stroke-linecap="square" stroke-miterlimit="1.5" stroke-width="80" d="M-270 460L-110 460M-200 450L0 -460L200 450M110 460L270 460M-120 130L120 130"/></symbol><symbol id="S" preserveAspectRatio="xMinYMid" viewBox="-600 -600 1200 1200"><path d="M0 -500C100 -250 355 -100 355 185A150 150 0 0 1 55 185A10 10 0 0 0 35 185C35 385 85 400 130 500L-130 500C-85 400 -35 385 -35 185A10 10 0 0 0 -55 185A150 150 0 0 1 -355 185C-355 -100 -100 -250 0 -500Z"/></symbol><rect width="239" height="335" x="-119.5" y="-167.5" fill="#fff" stroke="#000" rx="12" ry="12"/><use width="164.8" height="164.8" x="-82.4" y="-82.4" stroke="#000" stroke-dasharray="100 100" stroke-linecap="round" stroke-width="100" xlink:href="#S"/><use width="164.8" height="164.8" x="-82.4" y="-82.4" stroke="#fff" stroke-width="50" xlink:href="#S"/><use width="164.8" height="164.8" x="-82.4" y="-82.4" fill="#000" xlink:href="#S"/><use width="32" height="32" x="-114.4" y="-156" xlink:href="#SA"/><use width="26.769" height="26.769" x="-111.784" y="-119" xlink:href="#S"/><g transform="rotate(180)"><use width="32" height="32" x="-114.4" y="-156" xlink:href="#SA"/><use width="26.769" height="26.769" x="-111.784" y="-119" xlink:href="#S"/></g></svg>