<svg xmlns="http://www.w3.org/2000/svg" xmlns:xlink="http://www.w3.org/1999/xlink" width="240" height="336" class="card" face="TD" preserveAspectRatio="none" viewBox="-120 -168 240 336"><symbol id="D" preserveAspectRatio="xMinYMid" viewBox="-600 -600 1200 1200"><path fill="red" d="M-400 0C-350 0 0 -450 0 -500C0 -450 350 0 400 0C350 0 0 450 0 500C0 450 -350 0 -400 0Z"/></symbol><symbol id="DT" preserveAspectRatio="xMinYMid" viewBox="-500 -500 1000 1000"><path fill="none" stroke="red" stroke-linecap="square" stroke-miterlimit="1.5" stroke-width="80" d="M-260 430L-260 -430M-50 0L-50 -310A150 150 0 0 1 250 -310L250 310A150 150 0 0 1 -50 310Z"/></symbol><rect width="239" height="335" x="-119.5" y="-167.5" fill="#fff" stroke="#000" rx="12" ry="12"/><use width="32" height="32" x="-114.4" y="-156" xlink:href="#DT"/><use width="26.769" height="26.769" x="-111.784" y="-119" xlink:href="#D"/><use width="70" height="70" x="-87.501" y="-135.501" xlink:href="#D"/><use width="70" height="70" x="17.501" y="-135.501" xlink:href="#D"/><use width="70" height="70" x="-87.501" y="-68.5" xlink:href="#D"/><use width="70" height="70" x="17.501" y="-68.5" xlink:href="#D"/><use width="70" height="70" x="-35" y="-102" xlink:href="#D"/><g transform="rotate(180)"><use width="32" height="32" x="-114.4" y="-156" xlink:href="#DT"/><use width="26.769" height="26.769" x="-111.784" y="-119" xlink:href="#D"/><use width="70" height="70" x="-87.501" y="-135.501" xlink:href="#D"/><use width="70" height="70" x="17.501" y="-135.501" xlink:href="#D"/><use width="70" height="70" x="-87.501" y="-68.5" xlink:href="#D"/><use width="70" height="70" x="17.501" y="-68.5" xlink:href="#D"/><use width="70" height="70" x="-35" y="-102" xlink:href="#D"/></g></svg>