<svg xmlns="http://www.w3.org/2000/svg" xmlns:xlink="http://www.w3.org/1999/xlink" width="240" height="336" class="card" face="4C" preserveAspectRatio="none" viewBox="-120 -168 240 336"><symbol id="C" preserveAspectRatio="xMinYMid" viewBox="-600 -600 1200 1200"><path fill="#000" d="M30 150C35 385 85 400 130 500L-130 500C-85 400 -35 385 -30 150A10 10 0 0 0 -50 150A210 210 0 1 1 -124 -51A10 10 0 0 0 -110 -65A230 230 0 1 1 110 -65A10 10 0 0 0 124 -51A210 210 0 1 1 50 150A10 10 0 0 0 30 150Z"/></symbol><symbol id="C4" preserveAspectRatio="xMinYMid" viewBox="-500 -500 1000 1000"><path fill="none" stroke="#000" stroke-linecap="square" stroke-miterlimit="1.5" stroke-width="80" d="M50 460L250 460M150 460L150 -460L-300 175L-300 200L270 200"/></symbol><rect width="239" height="335" x="-119.5" y="-167.5" fill="#fff" stroke="#000" rx="12" ry="12"/><use width="32" height="32" x="-114.4" y="-156" xlink:href="#C4"/><use width="26.769" height="26.769" x="-111.784" y="-119" xlink:href="#C"/><use width="70" height="70" x="-87.501" y="-135.588" xlink:href="#C"/><use width="70" height="70" x="17.501" y="-135.588" xlink:href="#C"/><g transform="rotate(180)"><use width="32" height="32" x="-114.4" y="-156" xlink:href="#C4"/><use width="26.769" height="26.769" x="-111.784" y="-119" xlink:href="#C"/><use width="70" height="70" x="-87.501" y="-135.588" xlink:href="#C"/><use width="70" height="70" x="17.501" y="-135.588" xlink:href="#C"/></g></svg>