<svg height="512pt" viewBox="0 -12 512 512" width="512pt" xmlns="http://www.w3.org/2000/svg"><path d="m182.632812 404.128906c-4.425781 0-8.039062-3.578125-8.039062-8 0-4.425781 3.535156-8 7.949219-8h.089843c4.414063 0 8 3.574219 8 8 0 4.421875-3.585937 8-8 8zm0 0"/><path d="m468.695312 61.265625c-.640624 0-1.296874-.074219-1.941406-.242187-4.289062-1.070313-6.898437-5.414063-5.824218-9.703126l11.308593-45.25c1.074219-4.277343 5.402344-6.917968 9.699219-5.820312 4.285156 1.070312 6.894531 5.414062 5.824219 9.703125l-11.3125 45.246094c-.914063 3.640625-4.167969 6.066406-7.753907 6.066406zm0 0"/><path d="m434.742188 27.328125c-3.582032 0-6.839844-2.425781-7.75-6.054687-1.082032-4.289063 1.527343-8.632813 5.824218-9.707032l45.246094-11.308594c4.273438-1.089843 8.625 1.535157 9.699219 5.824219 1.078125 4.285157-1.53125 8.628907-5.824219 9.703125l-45.25 11.3125c-.648438.160156-1.304688.230469-1.945312.230469zm0 0"/><path d="m159.769531 370.183594c-2.050781 0-4.097656-.785156-5.65625-2.34375-3.128906-3.128906-3.128906-8.183594 0-11.3125l308.917969-308.917969c3.128906-3.128906 8.183594-3.128906 11.3125 0 3.128906 3.125 3.128906 8.183594 0 11.3125l-308.917969 308.925781c-1.570312 1.5625-3.609375 2.335938-5.65625 2.335938zm0 0"/><path d="m125.832031 336.25c-2.046875 0-4.097656-.785156-5.65625-2.347656-3.128906-3.125-3.128906-8.183594 0-11.308594l308.921875-308.921875c3.125-3.128906 8.183594-3.128906 11.308594 0 3.128906 3.128906 3.128906 8.183594 0 11.3125l-308.917969 308.917969c-1.566406 1.570312-3.617187 2.347656-5.65625 2.347656zm0 0"/><path d="m172.046875 382.472656c-2.046875 0-4.09375-.785156-5.65625-2.34375l-58.527344-58.527344c-3.128906-3.128906-3.128906-8.183593 0-11.3125 3.128907-3.128906 8.183594-3.128906 11.3125 0l58.527344 58.527344c3.128906 3.128906 3.128906 8.183594 0 11.3125-1.558594 1.558594-3.605469 2.34375-5.65625 2.34375zm0 0"/><path d="m165.40625 421.097656c-2.046875 0-4.09375-.785156-5.652344-2.34375l-90.507812-90.503906c-3.125-3.128906-3.125-8.1875 0-11.3125 3.128906-3.128906 8.1875-3.128906 11.3125 0l90.503906 90.503906c3.128906 3.125 3.128906 8.183594 0 11.3125-1.558594 1.558594-3.605469 2.34375-5.65625 2.34375zm0 0"/><path d="m182.398438 428.128906c-8.550782 0-16.589844-3.328125-22.636719-9.367187-3.136719-3.128907-3.136719-8.183594-.019531-11.3125 3.128906-3.144531 8.203124-3.128907 11.3125-.015625 6.058593 6.054687 16.601562 6.054687 22.640624.015625 6.242188-6.242188 6.234376-16.394531 0-22.640625-6.238281-6.222656-16.390624-6.214844-22.617187.007812-3.125 3.128906-8.183594 3.128906-11.308594 0-3.128906-3.128906-3.128906-8.183594 0-11.3125 12.46875-12.472656 32.773438-12.464844 45.238281-.007812 12.480469 12.496094 12.480469 32.800781.007813 45.257812-6.03125 6.046875-14.070313 9.375-22.617187 9.375zm0 0"/><path d="m92.121094 313.625c-4.425782 0-8.042969-3.578125-8.042969-8 0-4.425781 3.539063-8 7.953125-8h.089844c4.414062 0 8 3.574219 8 8 0 4.421875-3.59375 8-8 8zm0 0"/><path d="m108.855469 330.59375c-2.046875 0-4.09375-.785156-5.648438-2.335938-3.136719-3.128906-3.136719-8.1875-.015625-11.3125 6.234375-6.25 6.234375-16.410156 0-22.65625-6.238281-6.226562-16.398437-6.207031-22.625.015626-6.238281 6.238281-6.230468 16.390624 0 22.640624 3.121094 3.125 3.121094 8.183594-.015625 11.3125-3.109375 3.109376-8.183593 3.125-11.3125-.019531-12.460937-12.476562-12.460937-32.78125.007813-45.238281 12.457031-12.488281 32.761718-12.480469 45.257812-.023438 12.472656 12.496094 12.472656 32.792969.015625 45.261719-1.558593 1.578125-3.617187 2.355469-5.664062 2.355469zm0 0"/><path d="m33.328125 440.0625c-2.046875 0-4.097656-.78125-5.65625-2.34375-3.128906-3.125-3.128906-8.183594 0-11.308594l75.511719-75.515625c3.128906-3.125 8.183594-3.125 11.3125 0 3.128906 3.128907 3.128906 8.1875 0 11.3125l-75.511719 75.511719c-1.558594 1.5625-3.609375 2.34375-5.65625 2.34375zm0 0"/><path d="m55.9375 462.703125c-2.050781 0-4.097656-.78125-5.65625-2.34375-3.128906-3.128906-3.128906-8.183594 0-11.3125l75.527344-75.527344c3.128906-3.128906 8.183594-3.128906 11.3125 0 3.125 3.128907 3.125 8.183594 0 11.3125l-75.527344 75.527344c-1.5625 1.5625-3.609375 2.34375-5.65625 2.34375zm0 0"/><path d="m31.992188 488.015625c-8.542969 0-16.585938-3.328125-22.625-9.382813-6.039063-6.023437-9.367188-14.066406-9.367188-22.609374 0-8.550782 3.328125-16.582032 9.375-22.632813 12.082031-12.078125 33.167969-12.070313 45.242188-.007813 12.480468 12.496094 12.480468 32.800782.007812 45.257813-6.050781 6.046875-14.082031 9.375-22.632812 9.375zm0-47.984375c-4.273438 0-8.289063 1.65625-11.304688 4.671875-3.023438 3.023437-4.6875 7.050781-4.6875 11.320313 0 4.273437 1.664062 8.28125 4.679688 11.296874 6.0625 6.0625 16.585937 6.054688 22.632812.007813 6.230469-6.230469 6.222656-16.382813-.007812-22.632813-3.015626-3.007812-7.03125-4.664062-11.3125-4.664062zm0 0"/><path d="m171.0625 324.9375c-2.046875 0-4.09375-.785156-5.65625-2.34375-3.125-3.128906-3.125-8.183594 0-11.3125l235.425781-235.410156c3.128907-3.125 8.183594-3.125 11.3125 0 3.128907 3.128906 3.128907 8.183594 0 11.3125l-235.425781 235.410156c-1.558594 1.566406-3.605469 2.34375-5.65625 2.34375zm0 0"/><path d="m112.160156 406.472656c-.832031 0-1.6875-.136718-2.527344-.417968l-33.9375-11.308594c-4.183593-1.394532-6.457031-5.921875-5.054687-10.121094 1.398437-4.183594 5.894531-6.457031 10.121094-5.058594l33.933593 11.3125c4.183594 1.394532 6.457032 5.921875 5.058594 10.121094-1.128906 3.351562-4.25 5.472656-7.59375 5.472656zm0 0"/><path d="m89.527344 429.097656c-.832032 0-1.6875-.136718-2.527344-.417968l-33.921875-11.3125c-4.183594-1.398438-6.453125-5.917969-5.054687-10.117188 1.402343-4.1875 5.886718-6.464844 10.121093-5.058594l33.917969 11.3125c4.183594 1.398438 6.457031 5.921875 5.058594 10.121094-1.121094 3.351562-4.242188 5.472656-7.59375 5.472656zm0 0"/><path d="m329.847656 404.128906c-4.421875 0-8.039062-3.578125-8.039062-8 0-4.425781 3.535156-8 7.953125-8h.085937c4.417969 0 8 3.574219 8 8 0 4.421875-3.582031 8-8 8zm0 0"/><path d="m43.304688 61.265625c-3.585938 0-6.839844-2.425781-7.753907-6.058594l-11.3125-45.246093c-1.070312-4.289063 1.539063-8.632813 5.824219-9.703126 4.257812-1.089843 8.625 1.535157 9.699219 5.8125l11.308593 45.25c1.082032 4.296876-1.535156 8.640626-5.824218 9.703126-.644532.167968-1.300782.242187-1.941406.242187zm0 0"/><path d="m77.257812 27.328125c-.640624 0-1.296874-.070313-1.945312-.238281l-45.25-11.3125c-4.285156-1.074219-6.894531-5.417969-5.824219-9.707032 1.066407-4.277343 5.417969-6.910156 9.699219-5.8125l45.246094 11.308594c4.289062 1.074219 6.894531 5.417969 5.824218 9.707032-.902343 3.628906-4.167968 6.054687-7.75 6.054687zm0 0"/><path d="m352.230469 370.183594c-2.046875 0-4.09375-.785156-5.65625-2.34375l-96.230469-96.230469c-3.128906-3.128906-3.128906-8.183594 0-11.3125s8.183594-3.128906 11.3125 0l96.230469 96.230469c3.128906 3.128906 3.128906 8.183594 0 11.3125-1.558594 1.570312-3.605469 2.34375-5.65625 2.34375zm0 0"/><path d="m386.167969 336.25c-2.046875 0-4.097657-.785156-5.65625-2.347656l-96.222657-96.238282c-3.128906-3.128906-3.128906-8.191406 0-11.3125 3.125-3.128906 8.183594-3.128906 11.3125 0l96.222657 96.242188c3.128906 3.125 3.128906 8.183594 0 11.308594-1.558594 1.570312-3.609375 2.347656-5.65625 2.347656zm0 0"/><path d="m339.953125 382.472656c-2.050781 0-4.097656-.785156-5.65625-2.34375-3.128906-3.128906-3.128906-8.183594 0-11.3125l58.527344-58.527344c3.128906-3.128906 8.183593-3.128906 11.3125 0 3.128906 3.128907 3.128906 8.183594 0 11.3125l-58.527344 58.527344c-1.5625 1.558594-3.609375 2.34375-5.65625 2.34375zm0 0"/><path d="m346.59375 421.097656c-2.050781 0-4.097656-.785156-5.65625-2.34375-3.128906-3.128906-3.128906-8.1875 0-11.3125l90.503906-90.503906c3.125-3.128906 8.183594-3.128906 11.3125 0 3.125 3.125 3.125 8.183594 0 11.3125l-90.507812 90.503906c-1.558594 1.558594-3.605469 2.34375-5.652344 2.34375zm0 0"/><path d="m329.601562 428.128906c-8.546874 0-16.585937-3.328125-22.625-9.382812-12.464843-12.457032-12.464843-32.761719 0-45.234375 12.503907-12.488281 32.792969-12.480469 45.253907-.007813 3.128906 3.128906 3.128906 8.183594 0 11.3125-3.125 3.128906-8.183594 3.128906-11.308594 0-6.242187-6.238281-16.394531-6.214844-22.632813.007813-6.21875 6.230469-6.226562 16.382812.007813 22.617187 6.046875 6.046875 16.582031 6.046875 22.648437-.007812 3.109376-3.113282 8.183594-3.128906 11.3125.015625 3.117188 3.128906 3.117188 8.183593-.019531 11.3125-6.046875 6.039062-14.078125 9.367187-22.636719 9.367187zm0 0"/><path d="m420.367188 313.625c-4.421876 0-8.039063-3.578125-8.039063-8 0-4.425781 3.535156-8 7.953125-8h.085938c4.417968 0 8 3.574219 8 8 0 4.421875-3.582032 8-8 8zm0 0"/><path d="m437.097656 330.59375c-2.050781 0-4.097656-.785156-5.648437-2.335938-3.136719-3.128906-3.136719-8.1875-.015625-11.3125 6.230468-6.25 6.238281-16.402343.007812-22.632812-6.234375-6.25-16.402344-6.242188-22.648437-.007812-6.21875 6.230468-6.21875 16.390624.015625 22.640624 3.121094 3.125 3.121094 8.183594-.015625 11.3125-3.113281 3.109376-8.183594 3.125-11.3125-.019531-12.457031-12.476562-12.457031-32.773437 0-45.246093 12.527343-12.472657 32.832031-12.457032 45.28125.015624 12.460937 12.457032 12.460937 32.761719 0 45.230469-1.570313 1.578125-3.617188 2.355469-5.664063 2.355469zm0 0"/><path d="m478.671875 440.0625c-2.046875 0-4.097656-.78125-5.65625-2.34375l-75.511719-75.511719c-3.128906-3.125-3.128906-8.183593 0-11.3125 3.128906-3.125 8.183594-3.125 11.3125 0l75.511719 75.515625c3.128906 3.125 3.128906 8.183594 0 11.308594-1.558594 1.5625-3.609375 2.34375-5.65625 2.34375zm0 0"/><path d="m456.0625 462.703125c-2.046875 0-4.09375-.78125-5.65625-2.34375l-75.527344-75.527344c-3.125-3.128906-3.125-8.183593 0-11.3125 3.128906-3.128906 8.183594-3.128906 11.3125 0l75.527344 75.527344c3.128906 3.128906 3.128906 8.183594 0 11.3125-1.558594 1.5625-3.605469 2.34375-5.65625 2.34375zm0 0"/><path d="m480.007812 488.015625c-8.550781 0-16.582031-3.328125-22.632812-9.375-12.472656-12.464844-12.472656-32.769531-.007812-45.242187 12.113281-12.09375 33.175781-12.085938 45.257812-.007813 6.046875 6.050781 9.375 14.082031 9.375 22.632813 0 8.542968-3.328125 16.585937-9.382812 22.625-6.023438 6.039062-14.066407 9.367187-22.609376 9.367187zm0-47.984375c-4.28125 0-8.296874 1.65625-11.328124 4.679688-6.214844 6.234374-6.222657 16.386718.007812 22.617187 6.046875 6.046875 16.585938 6.039063 22.617188.007813 3.03125-3.03125 4.695312-7.039063 4.695312-11.3125 0-4.269532-1.664062-8.296876-4.6875-11.320313-3.015625-3.015625-7.03125-4.671875-11.304688-4.671875zm0 0"/><path d="m340.9375 324.9375c-2.050781 0-4.097656-.785156-5.65625-2.34375l-67.953125-67.96875c-3.128906-3.128906-3.128906-8.191406 0-11.3125 3.128906-3.128906 8.183594-3.128906 11.3125 0l67.953125 67.96875c3.125 3.128906 3.125 8.183594 0 11.3125-1.5625 1.566406-3.609375 2.34375-5.65625 2.34375zm0 0"/><path d="m399.839844 406.472656c-3.351563 0-6.472656-2.121094-7.582032-5.472656-1.402343-4.191406.863282-8.726562 5.054688-10.121094l33.933594-11.3125c4.234375-1.398437 8.722656.867188 10.121094 5.058594 1.402343 4.191406-.863282 8.726562-5.054688 10.121094l-33.9375 11.308594c-.847656.28125-1.695312.417968-2.535156.417968zm0 0"/><path d="m422.472656 429.097656c-3.351562 0-6.472656-2.121094-7.585937-5.472656-1.398438-4.191406.867187-8.722656 5.058593-10.121094l33.917969-11.3125c4.226563-1.40625 8.722657.863282 10.121094 5.058594 1.398437 4.191406-.863281 8.71875-5.054687 10.117188l-33.921876 11.3125c-.847656.28125-1.703124.417968-2.535156.417968zm0 0"/><path d="m222.0625 240.015625c-2.046875 0-4.09375-.785156-5.65625-2.34375l-178.75-178.75c-3.128906-3.128906-3.128906-8.1875 0-11.3125 3.128906-3.128906 8.183594-3.128906 11.3125 0l178.75 178.75c3.128906 3.128906 3.128906 8.183594 0 11.3125-1.558594 1.558594-3.605469 2.34375-5.65625 2.34375zm0 0"/><path d="m239.03125 223.046875c-2.046875 0-4.09375-.78125-5.65625-2.34375l-133.519531-133.519531c-3.128907-3.128906-3.128907-8.183594 0-11.3125 3.128906-3.125 8.183593-3.125 11.3125 0l133.511719 133.511718c3.128906 3.128907 3.128906 8.183594 0 11.3125-1.550782 1.570313-3.601563 2.351563-5.648438 2.351563zm0 0"/><path d="m256 206.082031c-2.046875 0-4.097656-.785156-5.65625-2.347656l-178.75-178.75c-3.128906-3.128906-3.128906-8.183594 0-11.3125 3.125-3.128906 8.183594-3.128906 11.308594 0l178.753906 178.753906c3.128906 3.125 3.128906 8.183594 0 11.308594-1.558594 1.5625-3.609375 2.347656-5.65625 2.347656zm0 0"/></svg>