<svg xmlns="http://www.w3.org/2000/svg" xmlns:xlink="http://www.w3.org/1999/xlink" id="Capa_1" x="0" y="0" version="1.1" viewBox="0 0 512 512" xml:space="preserve" style="enable-background:new 0 0 512 512"><g><g><path d="M290.133,460.8H128V213.333c0-4.719-3.823-8.533-8.533-8.533c-4.71,0-8.533,3.814-8.533,8.533v256 c0,4.719,3.823,8.533,8.533,8.533h170.667c4.71,0,8.533-3.814,8.533-8.533S294.844,460.8,290.133,460.8z"/></g></g><g><g><path d="M401.041,0H110.95C92.117,0,76.8,15.317,76.8,34.15V477.85c0,18.833,15.317,34.15,34.15,34.15H401.05 c18.833,0,34.15-15.317,34.15-34.15V34.15C435.2,15.317,419.883,0,401.041,0z M418.133,477.85c0,9.421-7.663,17.084-17.092,17.084 H110.95c-9.421,0-17.084-7.663-17.084-17.084V34.15c0-9.421,7.663-17.084,17.084-17.084H401.05 c9.421,0,17.084,7.663,17.084,17.084V477.85z"/></g></g><g><g><path d="M177.493,71.68l-25.6-34.133c-3.226-4.301-10.428-4.301-13.653,0l-25.6,34.133c-2.278,3.038-2.278,7.202,0,10.24 l25.6,34.133c1.613,2.15,4.139,3.413,6.827,3.413s5.214-1.263,6.827-3.422l25.6-34.133 C179.772,78.882,179.772,74.709,177.493,71.68z M145.067,96.708L130.133,76.8l14.933-19.908L160,76.8L145.067,96.708z"/></g></g><g><g><path d="M399.36,430.089l-25.6-34.133c-3.226-4.301-10.428-4.301-13.653,0l-25.6,34.133c-2.278,3.029-2.278,7.202,0,10.231 l25.6,34.133c1.613,2.15,4.139,3.413,6.827,3.413s5.214-1.263,6.827-3.413l25.6-34.133 C401.638,437.291,401.638,433.118,399.36,430.089z M366.933,455.108L352,435.2l14.933-19.908l14.933,19.908L366.933,455.108z"/></g></g><g><g><path d="M339.627,250.889l-76.8-102.4c-3.226-4.301-10.428-4.301-13.653,0l-76.8,102.4c-2.278,3.029-2.278,7.202,0,10.231 l76.8,102.4c1.613,2.15,4.139,3.413,6.827,3.413s5.214-1.263,6.827-3.413l76.8-102.4 C341.905,258.091,341.905,253.918,339.627,250.889z M256,344.175L189.867,256L256,167.825L322.133,256L256,344.175z"/></g></g><g><g><path d="M392.533,34.133H221.867c-4.71,0-8.533,3.814-8.533,8.533s3.823,8.533,8.533,8.533H384v247.467 c0,4.719,3.823,8.533,8.533,8.533s8.533-3.814,8.533-8.533v-256C401.067,37.948,397.244,34.133,392.533,34.133z"/></g></g></svg>