<svg version="1.1" id="Capa_1" xmlns="http://www.w3.org/2000/svg" xmlns:xlink="http://www.w3.org/1999/xlink" x="0px" y="0px"
	 width="519.039px" height="519.039px" viewBox="0 0 519.039 519.039" style="enable-background:new 0 0 519.039 519.039;"
	 xml:space="preserve">
<g>
	<path d="M263.436,272.871c1.406,4.87,1.88,9.8,1.389,14.871l-1.412,7.678c-0.688,2.477-1.579,4.983-2.672,7.537
		c-0.038,0.088-0.074,0.165-0.115,0.236l-34.224,69.398c-0.635,1.3-1.791,2.27-3.188,2.665h-0.012
		c-1.386,0.408-2.887,0.195-4.128-0.562l-66.106-40.43c-0.042-0.023-0.098-0.059-0.133-0.082c-2.402-1.585-4.486-3.311-6.458-5.119
		l-5.34-5.668c-3.015-3.943-5.222-8.305-6.614-13.058c-5.884-20.244,4.552-41.417,23.519-49.426l2.544-0.993
		c0.653-0.225,1.33-0.438,2.016-0.639c9.206-2.671,18.805-2.092,27.509,1.608c5.355-7.775,13.146-13.417,22.357-16.086
		c0.727-0.222,1.46-0.399,2.184-0.58l2.678-0.508C237.485,240.397,257.555,252.668,263.436,272.871z M479.592,8.601v343.723
		c0,4.74-3.848,8.582-8.588,8.582h-30.08v54.427c0,4.734-3.854,8.594-8.595,8.594h-67.441l5.987,20.588
		c1.318,4.551-1.3,9.327-5.857,10.656L146.35,518.693c-4.557,1.33-9.333-1.301-10.651-5.852L39.787,182.776
		c-1.318-4.551,1.303-9.327,5.867-10.651l150.376-43.696V71.604c0-4.741,3.845-8.595,8.597-8.595h30.074V8.595
		c0-4.752,3.845-8.595,8.588-8.595h227.715C475.75,0.006,479.592,3.848,479.592,8.601z M351.973,441.067l-91.105-313.575
		L58.696,186.245l91.111,313.569L351.973,441.067z M423.742,80.203H213.215v43.246l51.102-14.848
		c4.557-1.324,9.327,1.289,10.645,5.854l18.028,62.019l13.399-14.652c0.993-1.076,2.382-1.688,3.836-1.688h0.019
		c1.459,0,2.86,0.618,3.848,1.699l52.646,57.76c0.03,0.045,0.083,0.08,0.107,0.121c1.885,2.217,3.404,4.469,4.816,6.792l3.576,6.98
		c1.809,4.664,2.736,9.514,2.736,14.499c0,21.261-16.07,38.834-36.688,41.251l-2.748,0.249c-0.704,0.035-1.407,0.053-2.135,0.053
		c-3.794,0-7.471-0.633-11.023-1.613l9.451,32.497c10.711,0.159,23.448-3.594,23.448-3.594v11.815h-21.06l22.691,78.087h63.842
		V80.203H423.742z M462.416,17.194H251.877v45.82H432.33c4.741,0,8.595,3.854,8.595,8.595v272.119h21.485V17.194H462.416z"/>
</g>
<g>
</g>
<g>
</g>
<g>
</g>
<g>
</g>
<g>
</g>
<g>
</g>
<g>
</g>
<g>
</g>
<g>
</g>
<g>
</g>
<g>
</g>
<g>
</g>
<g>
</g>
<g>
</g>
<g>
</g>
</svg>
